<svg id="a438fbc1-3c55-4dde-a8f8-b27fe0ebbb17" data-name="Livello 1" xmlns="http://www.w3.org/2000/svg" viewBox="0 0 1000 962.74"><path d="M387,35.39C248.23,116.8,219.54,140.82,188.18,200.87c-16.69,32.7-36,50.72-74.74,70.07C70.73,292.29,60.06,303.64,60.06,327c0,34.7,24,100.76,60.72,168.83,52.72,98.76,53.38,99.42,48.71,111.43-7.34,20-44,32.7-98.76,35.37C16,644.62,0,651.3,0,670.65c0,14.68,17.35,30.69,80.74,72.73,27.36,18,78.74,55.39,113.44,82.75,94.76,73.4,93.42,73.4,155.48,74.73,46.71,1.34,63.39,5.34,120.78,29.36,90.75,38.71,108.1,40.71,136.13,17.35,12-10,39.37-44,60.72-76.07,40-59.39,66.73-86.75,85.41-86.75,5.34,0,32.7,10.68,61.39,23.36,77.41,34.7,87.42,36,110.11,8.67,30.69-36,70.73-128.78,74.73-172.82,4.67-48.72-4.67-65.4-54.71-93.43C893.5,521.84,775.39,418.41,691.31,329.66,608.57,241.58,551.85,164.17,500.47,69.42,480.45,32.05,461.1.69,457.09,0,453.76-.65,421.73,15.37,387,35.39Z" transform="translate(0 0)" fill="#fff"/></svg>