<svg id="f4f7654d-e1f5-465b-bd3d-9a48015e8c66" data-name="Livello 1" xmlns="http://www.w3.org/2000/svg" viewBox="0 0 931.16 1000"><path d="M202.55,9C138.31,23.07,120.66,40,95.25,114.13c-6.35,18.36-25.41,50.12-41.65,70.6C-8.52,260.26-14.87,295.55,25.37,332.26,39.49,345,68.43,383.79,89.6,419.09c53,86.12,93.89,143.29,158.83,221.65,42.36,51.53,55.06,72,55.06,88.24,0,12-11.29,60.71-25.41,107.3-36.71,120-27.53,141.88,47.3,120,65.65-19.77,112.24-12.71,148.24,21.18,30.35,28.94,67.76,29.65,120.71,4.23,24.7-12,49.41-26.12,55.76-31.06,14.12-12,37.42-56.47,48.71-95.29,11.3-37.42,20.47-45.18,77.65-65.65,24.71-9.18,57.18-27.53,70.59-40.24,31.77-28.24,78.36-125.65,83.3-171.54,2.82-29.64-.71-40.94-25.41-86.12C889.4,463.56,868.22,412,858.34,377.44c-31.06-107.3-43.77-115.77-131.3-86.12-29.65,9.88-59.3,18.35-64.24,18.35-5.65,0-44.47-28.94-87.53-64.24C502.56,186.14,426.32,133.19,412.2,133.19c-12.7,0-45.17-36.7-48.7-55.06C354.32,33.66,348,23.07,324.67,11.78,296.43-3,260.43-3.75,202.55,9Z" transform="translate(0 0)" fill="#fff"/></svg>