<svg id="f2638d58-7d73-4311-b846-4d5a73fa26aa" data-name="Livello 1" xmlns="http://www.w3.org/2000/svg" viewBox="0 0 1000 564.87"><path d="M992.27,259.58c-16.84,15-89.6,18.64-128.09,6.62-16.24-4.81-32.48-7.82-36.08-6-4.21,1.2-15,18-25.26,36.68-12.63,24.66-27.07,40.89-54.13,60.13-19.84,15-39.69,33.68-43.89,41.51s-9,39.69-11.43,70.35L691.51,498l-1.55,24c-166.88,79.34-373.6,31.07-352.44-6.71,6.82-12.18,7.68-25.24,5.53-37.56-5.06-29-26.76-53.9-26.76-53.9L91.41,447.81,72.17,424.36C39.09,382.87,0,283.64,0,241c0-19.85,4.81-31.28,19.85-51.73,29.46-37.88,43.29-40.89,92.61-18,39.69,18,83.59,27.66,152.14,33.68l33.68,2.41,25.26-49.92C364.43,78,401.72,60.52,556.27,46.1c91.41-7.83,169.59-20.45,219.5-35.48C833.51-6.22,832.3-6.83,851,37.07c18,42.7,37.88,71,101,144.34C1004.9,243.35,1006.7,246.36,992.27,259.58Z" transform="translate(0 0)" fill="#fff"/></svg>