<svg id="e4a5bf2b-4af5-4b04-a6e1-bbb0b97de9f5" data-name="Livello 1" xmlns="http://www.w3.org/2000/svg" viewBox="0 0 488 1000"><path d="M226.68,7.84c-3,4.87-8.24,19.5-11.62,33-11.24,45-12.37,47.62-27.37,53.61-35.61,14.25-89.22,10.5-138.71-9-32.62-13.12-44.24-13.87-47.62-3-7.49,23.24,16.12,92.6,66,192.7,29.62,60.36,40.11,85.48,52.11,129,15.75,54.36,28.87,84.73,56.24,129.72,8.24,13.5,15,27,15,30.37,0,8.24-16.87,39.74-28.86,54-6.38,7.88-23.25,18.37-45,28.5-41.24,19.12-46.49,26.24-39.37,52.48,12.75,48-4.12,116.6-40.11,162C14.49,889.63,7,908,7,936.12c0,28.49,7.87,47.24,24,57.73,10.12,6.38,16.12,7.13,46.87,5.25,57.36-3.37,80.23-19.49,90.35-63,6.75-28.87,30.74-77.23,48.74-97.85,9-9.75,23.62-22.12,33.36-26.62C272.42,800,282.55,788.78,287.79,770c2.25-8.25,5.63-48.74,7.5-90.35,2.63-57.36,4.88-78,9.38-87C318.16,566.46,365,542.09,443.38,520L488,507.6l-2.25-45c-4.5-84-18-141-39.37-163.46-19.12-19.87-69.73-49.12-117-67.49-50.24-19.49-64.86-27.74-72.73-41.61-10.5-17.62-11.62-48.74-2.63-90.73,10.5-48.74,10.5-76.86,0-90C244.68-2.66,233.81-3,226.68,7.84Z" transform="translate(0 0)" fill="#fff"/></svg>