<svg id="e76022d2-0218-45dc-9694-3a79a63e0448" data-name="Livello 1" xmlns="http://www.w3.org/2000/svg" viewBox="0 0 1000 961.15"><path d="M136.41,21.48c-9.24,13-20.11,29.34-25,35.87C100,74.19,88.59,73.11,70.65,53.54,50,31.8,39.67,36.69,29.35,74.74c-4.35,16.84-13,45.11-18.48,63.58C4.89,156.26,0,177.45,0,184.52c0,7.61,27.17,67.39,60.33,133.15l60.87,119L181.52,440c33.15,1.63,70.65,6.53,83.7,10.33,30.43,9.24,63,38,73.37,64.67,11.41,27.18,28.8,44,47.28,44,8.15,0,32.61-6,54.35-13.59s44.56-13.59,50-13.59c16.3,0,61.95,50,82.06,90.22,24.46,48.91,34.24,79.89,47.29,148.37,11.95,63,20.65,80.43,42.39,85.33,25,6,51.08,21.19,94,55.43,39.67,31.52,69.56,50,80.43,50,2.72,0,16.85-9.24,31.52-21.2,14.68-11.41,38.59-26.08,53.27-32.6,15.21-6.53,34.23-18.48,42.39-26.63,18.48-17.4,36.41-50.55,36.41-66.31,0-17.39-18.48-50-59.78-105.43C920.11,681.8,891.3,639.41,877.17,616c-14.13-23.91-32.6-52.17-41.3-62.5-19-24.46-51.63-95.11-59.78-129.89-8.16-35.87-1.63-50,32.61-71.2,28.8-17.39,39.13-34.23,39.13-62.5,0-31-18.48-40.76-89.68-48.91-60.32-6.52-94.56-38-79.35-71.19,12-26.09,7.61-38-21.19-59.24C627.17,88.32,612,69.3,606.52,45.93c-6-25-19.56-41.3-34.24-41.3-7.61,0-32.61,8.15-55.43,18.48-43.48,19-101.63,37.5-137.5,43.47C363,69.3,345.11,64.41,277.72,37.24,232.61,19.3,186.41,3,174.46,1.37,153.8-1.89,152.72-.81,136.41,21.48Z" transform="translate(0 0)" fill="#fff"/></svg>