<svg id="af4713c3-daa9-4dbd-9925-90c475a105ad" data-name="Livello 1" xmlns="http://www.w3.org/2000/svg" viewBox="0 0 1000 517.55"><path d="M178.43,5.9c-15.05,9.29-41,11.53-56.38,5.13C99.31,1.42,80.73,5.9,64.39,25.12,52.86,39.22,47.09,61,42.93,109.37c-1.93,22.75-4.81,44.85-6.09,49-1.6,4.16-10.25,11.21-19.86,16.33L0,183.37l30.11,5.77c16.66,3.2,33.64,8,37.8,10.89,9,5.77,19.54,21.78,22.11,33.32,7.68,33.63,29.79,43.56,63.74,28.51,9.62-4.17,22.11-6.73,34-7.05,17,0,19.86,1,31.07,11.21,14.74,13.46,32.36,24.67,84.9,55.1,20.82,12.17,48.05,29.79,60.86,39.08,21.14,16,23.71,17.3,40.36,17.3,9.93,0,27.23,2.24,38.12,4.81,21.79,5.12,42.61,7,47.42,4.16,1.6-1.28,16.33-4.16,33-7.05,23.71-4.16,36.52-8.65,60.55-21.14,17-9,33-16,35.87-16,2.57,0,22.75,7.37,44.53,16,21.79,9,42.29,16,45.81,16,19.22,0,22.1,10.25,13.78,50.29-6.09,28.51-4.17,34,19.22,58.62,18.9,19.54,51.25,37.16,61.82,34,3.21-1,10.57-10.25,16.66-20.5,5.77-9.93,13.46-23.07,17-28.83,3.2-5.77,11.21-13.14,17.94-16.34,19.54-9.93,63.75-22.74,78.8-22.74,14.1,0,14.42,0,23.71,18.9,10.25,19.86,22.74,32.35,33,32.35,17.94,0,5.13-25.95-36.52-73.68-74.64-85.85-81.68-103.79-95.46-241.86-8-80.4-9.29-90-14.09-95.78-3.85-5.13-29.8-11.53-76.25-17.94l-27.54-4.16L720.45,60.36c-17.3,10.89-24.34,13.46-36.2,13.46C651.26,74.14,456.49,63.24,435,60c-25.31-3.52-30.12-2.24-42.29,11.53-6.73,8-9,8.65-22.42,7.05-8-1-35.56-9.61-61.19-19.22S252.75,39.54,240.9,36.34C222.32,31.53,218.15,29,214,20.64,202.78-1.79,195.73-4.67,178.43,5.9Z" transform="translate(0 0)" fill="#fff"/></svg>