<svg id="bb28a331-464f-4f23-a453-17b477b06197" data-name="Livello 1" xmlns="http://www.w3.org/2000/svg" viewBox="0 0 1000 895.8"><path d="M344.23,4.12c-19.79,5.16-43.89,23.23-77.45,59.38C240.1,91.9,193.63,134.93,162.65,159c-62,49.06-86.06,75.73-131.67,147.16L0,354.38l35.28,33.56c64.55,62.82,80.9,123.92,50.78,199.65-20.66,52.5-16.35,73.15,28.4,133.4,64.54,86.91,65.4,86.91,213.42,84.33,70.57-.86,136,.86,145.44,3.44,9.47,3.45,24.1,20.66,33.56,38.73,23.24,44.75,39.59,52.5,80.9,38.73,65.4-22.38,96.39-23.24,189.33-4.31,50.77,10.33,99,16.36,107.57,12.91,12.05-3.44,17.21-16.35,20.66-55.93,3.44-28.4,13.76-73.15,24.09-100.69,9.47-27.54,19.8-55.94,22.38-63.69,2.58-9.46-6.89-18.07-31.84-29.26-69.71-31.84-71.43-58.52-6-145.44,22.38-31,38.73-61.1,36.15-68-6.89-17.21-60.24-40.45-95.53-40.45-16.35,0-37.86-4.3-47.33-8.6-21.52-12-42.17-53.36-42.17-86.06,0-31.85,49.05-86.92,162.65-183.31l72.29-62-37.87-6c-74.87-12.91-296.9-32.71-420-37.87C473.32,5,407.06,2.4,395,.68S360.59.68,344.23,4.12Z" transform="translate(0 0)" fill="#fff"/></svg>