<svg id="b3e3f96b-0aef-478e-a3bf-b26d1abaa69d" data-name="Livello 1" xmlns="http://www.w3.org/2000/svg" viewBox="0 0 1000 857.63"><path d="M94.15,6c-2.69,3.58-8.07,19.28-11.66,34.52-4.93,20.62-13.9,38.55-35,69C6.72,168.3,0,183.09,0,213.13c0,19.73,3.59,32.73,17.93,63.21,41.25,87.87,68.15,123.29,120.6,156.91,53.35,34.52,100,82,116.11,118.81,11.66,25.55,21.07,35.86,87.42,97.28,87.43,81.15,104.91,94.6,174.4,135.84,29.14,17,63.21,39,76.21,48.87,13,9.41,27.8,17.48,32.73,17.93,26.9,1.34,156.91,4.48,216.09,5.38,87.87,1.34,88.76.45,115.66-69.49,6.73-16.59,18.83-41.69,27.35-56,19.73-33.17,20.62-55.59,2.69-80.25C953.57,605,909.63,581.64,851.8,579.4c-28.69-1.34-47.07-5.38-75.32-15.69-36.31-13.9-37.21-14.34-48.42-37.66-16.58-35-48-57.38-98.18-70.83-34.52-9-42.59-18.38-42.59-51.56,0-43.93,19.28-56.48,79.36-51.1l32.72,2.69-22-48.87c-30.93-69.49-41.69-103.11-43.93-136.29-2.24-36.76,6.28-52,39.9-69.94,25.11-13.89,30.93-24.65,21.52-41.69-7.17-14.35-24.21-11.66-52.9,8.07A643,643,0,0,1,579.22,102c-38.55,19.27-46.17,24.65-110.73,74.87-59.18,46.62-81.15,61-98.63,63.66-14.35,2.24-17.48.89-35-18.83-10.31-11.66-30.48-30-44.83-41.25-13.9-10.76-36.76-33.62-49.76-50.21-24.66-30.93-31.83-35.42-72.18-44.83-30.49-7.17-42.59-20.17-46.63-50.21-1.79-13.45-4.48-26.9-6.72-30C110.29-2.06,100.87-1.61,94.15,6Z" transform="translate(0 0)" fill="#fff"/></svg>