<svg id="e2fc4ded-c215-4806-a1ff-2cb16ad13966" data-name="Livello 1" xmlns="http://www.w3.org/2000/svg" viewBox="0 0 1000 486.68"><path d="M609.05,7.17c-3.81,4.29-11.91,18.09-18.57,30C582.86,51,571.9,62.41,561,68.6c-15.71,8.57-19.52,8.57-33.33,2.86-28.57-11.43-43.33-11-91.91,4.76-28.57,9-62.38,15.71-84.76,17.14-35.71,2.38-37.14,3.33-44.76,17.62-3.81,8.09-17.62,32.86-30.48,55.24-17.14,30-24.76,50.47-30.47,78.09-8.57,45.24-15.24,56.67-41.43,70-20,10-37.14,10.48-90,1.43-16.67-2.86-17.62-1.9-30.48,20.48-7.62,12.38-25.71,40.95-40.47,63.33C13.81,442.88,0,467.65,0,475.74,0,488.6,24.76,490,66.19,480.5,174.29,454.79,214.76,432.41,261.9,371c61-79.52,87.15-110,136.2-158.1,96.66-94.76,116.66-105.71,170.47-94.76,83.33,17.14,174.29,56.19,298.57,128.1,65.24,37.62,88.1,48.57,108.1,51.43,22.38,2.85,24.76,2.38,24.76-5.72,0-11.43-102.86-112.86-135.71-133.81-47.15-30-45.24-27.62-45.24-57.62,0-52.85-19.53-67.62-88.57-67.62-41.91,0-44.77-.47-68.1-16.66C636.19-1.88,619.05-4.74,609.05,7.17Z" transform="translate(0 0)" fill="#fff"/></svg>