<svg id="a6f66729-1465-4a22-bc2e-d68bd1c453a7" data-name="Livello 1" xmlns="http://www.w3.org/2000/svg" viewBox="0 0 1000 946.58"><path d="M551.75,2.65C543.09,8,538.56,27.8,541.86,45.53c1.23,7,9.89,21.45,19,31.35,18.56,20.61,18.56,20.2,10.31,31.34-8.24,10.72-7.83,23.91,2.07,43.29,9.07,17.32,7.83,24.33-7.84,38.35C553,201,533.61,200.17,521.24,187.39c-5.78-5.36-14.44-21.86-19.38-36.7-6.19-17.73-11.55-26.8-16.5-27.63-4.12-.82-27.22,7-51.13,17.73C404.54,154,388,159.35,381,157.7c-15.67-4.12-37.11-25.57-53.61-54-24.33-41.65-33-40-44.95,9.48-7.42,31.76-22.68,65.57-53.19,118.35-21.44,37.12-29.28,61.86-33.4,103.1-3.72,39.17-8.66,53.61-21,59.38C151.34,404.3,132,395.64,132,374.19c0-15.25-19.38-43.71-35.88-52.78-13.61-7-14.43-7-29.28.83-21,11.13-39.58,45.77-39.58,74.22-.42,16.5,3.3,27.63,16.49,53.61,9.49,18.15,21.86,45.77,28,61.86,5.78,15.67,19.8,44.53,30.93,63.91C126.6,616.26,127,614.19,89.07,653c-16.91,17.32-28.86,26-35,26-5.77,0-19.38-8.25-31.75-19C9.9,649.66,0,643.47,0,646.77c0,16.08,18.56,77.94,30.93,105.57C52,797.7,58.14,803.06,87,801.82c32.58-1.23,47,9.9,107.63,82.07,49.48,59.38,62.68,69.69,75.46,59,4.54-3.71,6.19-14.84,6.19-44.94,0-44.13,4.53-56.5,32.16-90.31,23.51-28.87,64.75-45,85.78-33.41,8.66,4.54,15.25,4.54,40,0,16.49-3.29,40-6.59,52.78-7.42,21.86-2.06,23.51-1.65,33,10.72C548.45,815,548.45,815,587.63,822.85c20.62,4.54,54.84,14.85,76.29,23.1,45.36,17.73,60.2,17.73,87.42-.83l17.73-12,22.68,10.31c19,9.08,30.11,11.14,68,12,25.16.83,66.81.41,92.79-1.24l47.42-2.88-18.56-16.5c-10.31-9.07-39.17-30.1-63.91-46.59-70.11-46.6-155.06-138.15-170.31-183.1-2.89-7.83-5-28.45-5-45.77,0-35.46,7-59.38,30.51-106,8.25-16.49,14.85-32.58,14.85-36.29,0-8.66-12.78-7.83-46.6,2.89l-28.45,9.48-9.9-11.54c-25.57-29.69-35.88-121.24-17.32-156.71,7.42-14.43,9.49-28,12.37-83.29,1.65-36.29,5.36-71.76,7.84-79.18,8.66-26.8-1.65-37.11-72.58-72.58C584.74,2.24,563.3-4.36,551.75,2.65Z" transform="translate(0 0)" fill="#fff"/></svg>