<svg id="e9872ba1-0b7e-4d06-8647-b1df5b045828" data-name="Livello 1" xmlns="http://www.w3.org/2000/svg" viewBox="0 0 1000 949.99"><path d="M345.72,44.28c-32.26,51.87-45.54,58.83-92.36,46.81-37.32-9.49-60.09-19-108.17-46.81C112.3,25.94,110.4,25.94,88.26,35.43,56,48.71,25,74.65,8.55,102.48c-17.71,31-10.75,37.32,48.08,41.75,72.11,4.43,84.13,22.77,46.18,70.22-25.31,31.63-25.94,46.18-3.17,51.24,8.86,1.9,25.94,10.75,38,20.24,29.73,22.77,113.87,63.26,166.37,81,64.53,20.88,72.12,33.53,124.62,208.76C446.3,635.12,467.18,697.75,476,714.83c24,47.44,79.7,87.93,139.8,101.21,38.59,8.86,41.75,11.39,68.95,60.1,12,22.14,29.73,49.34,38.59,59.46C743,959,750,956.48,801.82,908.4c22.14-20.87,50.61-39.85,79.07-51.87,121.46-51.24,127.79-58.2,113.87-125.25C974.52,634.49,911.26,472.55,861.28,389c-44.28-73.38-65.79-93-200.53-182.18-70.21-47.45-162.57-112.6-205-146.13S377.35,0,375.45,0C374.19,0,360.27,19.61,345.72,44.28Z" transform="translate(0 0)" fill="#fff"/></svg>