<svg id="b01d5801-4db0-4c72-a011-4c954c63c716" data-name="Livello 1" xmlns="http://www.w3.org/2000/svg" viewBox="0 0 1000 783.8"><path d="M726.84,7.36C696.49,19.92,641,76.43,576.16,163.28,493.49,274.2,425.47,354.77,416.06,354.77c-4.19,0-16.75-17.79-26.16-40.81-39.77-87.9-116.15-137.08-180-116.15-48.14,15.69-91,68-77.44,94.18,5.23,10.46,15.7,20.92,23,23,9.42,3.14-3.14,26.16-33.48,64.87C19.47,509.64-9.83,572.42,2.73,635.21c10.46,50.22,27.2,58.59,91,46,64.88-12.56,145.45,1,242.77,41.85,95.22,40.81,170.56,60.7,229.16,60.7,109.88,0,291.95-62.79,307.65-104.65,4.18-11.51,3.14-56.5-2.1-100.45-11.51-87.9-4.18-101.5,67-138.13,45-22,60.69-69.06,61.74-180C1002,81.66,937.17-2,800.09,0,769.74,0,736.26,3.18,726.84,7.36Z" transform="translate(0 0)" fill="#fff"/></svg>