<svg id="f73e42b6-b905-471f-ba11-662c285236cc" data-name="Livello 1" xmlns="http://www.w3.org/2000/svg" viewBox="0 0 758.9 1000"><path d="M503.3,19.3c-12.11,10.38-28,24.22-34.95,30.45L455.2,61.17l5.19,17.65c7.27,23.87,3.81,31.49-39.1,86.5-19,24.22-37,48.79-40.14,55-7.26,14.88-6.92,31.14,1.73,68.86,8.31,36.33,5.89,52.94-10,68.85-15.92,16.27-29.76,20.07-83.74,22.49-43.59,2.43-53.63,3.81-76.12,12.81-48.79,19-65.74,35.29-65.74,62.63,0,24.91-20.07,58.13-42.56,71.27-8,4.85-31.49,14.19-51.9,21.46-20.76,6.92-40.83,15.57-45,19L.19,573.62,8.5,597.5C25.1,645.59,32.37,657,51.06,667,78.39,681.92,88.77,692,99.15,714.45c9,19.72,11.42,29.06,10.38,39.1,0,2.42-15.22,19.72-33.21,38.41L43.44,825.87l8.31,17c4.84,9.34,10.38,27,12.11,38.75,6.23,39.8,30.45,67.82,78.2,90.66,35.64,16.95,67.13,22.84,100.34,18,38.41-5.53,49.48-5.19,72.67,2.77,40.48,13.84,82,6.23,86.5-16.26,1-5.19,8.3-25.26,15.92-44.29,7.95-19,19-46.71,25.26-61.25,12.45-30.79,12.11-30.79,65.39-37.37a315.25,315.25,0,0,0,80.62-21.1c9.69-3.81,13.15-3.46,30.45,3.46,18.34,7.61,19.73,7.61,28,2.42,4.84-3.11,11.77-11.77,15.57-19.72,15.57-30.45,30.1-34.26,61.59-16.61,25.26,14.18,33.22,12.8,34.6-6.58,1.39-18.34-12.8-46-45.32-88.58-35.64-46.71-49.83-59.51-70.94-64-10-2.08-23.53-3.81-30.1-3.81-11.42,0-12.46-1-25.61-27-27-53.64-40.48-105.19-31.83-121.46,3.46-6.57,6.92-7.26,29.41-6.92,24.91.35,35.64-2.76,48.1-13.49,8.65-7.61,7.26-18.69-5.88-42.91-6.58-12.11-15.92-32.87-21.11-46a398.26,398.26,0,0,0-20.76-46c-10-17.64-12.11-25.26-12.11-41.86,0-33.91,14.88-73.36,41.87-109.69l13.14-18L604,138.68c-24.22-7.61-25.61-8.65-43.25-36-17.3-26.29-22.15-40.13-26.3-71.28-2.08-17.3-5.19-31.48-6.57-31.48S515.41,8.58,503.3,19.3Z" transform="translate(-0.19 0.07)" fill="#fff"/></svg>