<svg id="f59a71a8-9e0b-4ec0-9e80-b4060fee1732" data-name="Livello 1" xmlns="http://www.w3.org/2000/svg" viewBox="0 0 1000 711.16"><path d="M194.29,3C97,11.82,67.77,15.36,59.22,18,44.18,22.73,40.35,31.28,38,66.67c-2.07,34.21-1.48,33.33-26.55,49-18.58,11.8-15.33,24.48,15.63,60.46,7.38,8.85,14.16,19.46,15.34,23.59,3.24,13.57,10,20.94,31.26,34.51l20.64,13.27L92.25,266c-1.47,15.63-.88,19.46,4.13,25.65,7.67,9.44,23,10.92,99.39,8.56,87-2.66,97.32,0,104.69,26.83,4.13,15.63,12.09,24.48,31.26,35.39,9.14,5,29.2,21.53,44.53,36.28L404,425.59,429.34,417c23.3-7.66,26.54-8,38.93-4.72,19.46,5.31,28.9,15.64,36,40.11,13.27,45.72,15.33,51.61,20.64,60.17,7.08,11.5,14.16,11.5,30.38.59a129.12,129.12,0,0,1,30.08-14.45c20-6.79,66.35-10.92,79.33-7.08,10.32,3,13,12.09,6.19,19.17-17.1,16.81,8,26.83,95.56,37.45,59.28,7.37,67.83,9.73,77.85,19.76,11.21,11.21,26.84,40.11,33.92,63.41,8,26.54,15.93,41.29,28.9,54.26,13.86,13.86,43.35,28,52.2,25.07,9.44-3.54,20.94-29.79,31.56-71.08l9.14-36.86L990.27,584c-16.81-33-98.21-111.48-151.59-146.28-29.49-19.47-74.32-42.18-96.44-48.66-9.14-2.95-43.64-21.24-76.67-40.7-80.22-47.48-90.84-52.2-166.93-78.15C373.89,227.4,284.24,188.77,263.89,169c-13-12.68-22.12-31-22.41-44.24,0-11.2,10.91-28,39.22-60.75,27.43-31.56,28.9-35.39,17.7-47.19C284.54,2.09,276.87-.27,246.79,0,231.75.32,208.15,1.5,194.29,3Z" transform="translate(0 0)" fill="#fff"/></svg>