<svg id="e2000006-2567-4bee-ad09-ea0bb78089c1" data-name="Livello 1" xmlns="http://www.w3.org/2000/svg" viewBox="0 0 510.17 1000"><path d="M316.11,22.16c-7.39,16.45-13.43,24.17-23.17,30.22-7.05,4.7-32.23,26.86-56.07,49-37.94,35.92-47.68,43-77.89,58.08l-34.25,17.13-50,3c-30.22,2-54.06,5.37-60.43,8.39-22.5,10.41-19.14,28.88,15.44,80.92,32.23,48.68,30.89,45.66,47.68,92,13.76,37.27,14.1,38.95,15.44,91,1.68,52.72,1.68,53.05-7,65.48C72,537.54,75,549.29,97.53,563.73c8.06,5,15.45,13.09,18.47,19.81,9.4,22.49,4.36,65.81-12.09,106.77-15.78,39.28-24.17,90.32-22.83,136,1,37.27,1.68,40.62,13.43,65.13C120,944.81,147.9,976,185.5,993.49c17.12,7.73,19.47,8.06,29.88,3.7,22.83-9.4,38.28-35.26,46.34-76.22,5.37-27.53,13.76-39.28,35.59-49.36,15.44-7.05,22.49-8.39,41.29-7.05,19.14,1,25.86,3.36,46.34,15.45,27.86,16.45,45.32,18.8,51.7,7,9.07-16.79,31.23-175.26,43.32-309.23L487,501.62,472.9,475.43C453.43,438.49,454.44,428.09,486,367c13.43-25.52,24.17-50,24.17-54.39,0-22.84-46-122.55-71.85-155.12-8.39-11.08-15.44-20.82-15.44-22.16,0-1,2.35-5,5-8.73,7-9.4,6.38-12.76-6.71-28.2-6.38-7.73-11.75-15.78-11.75-18.14,0-6.37-30.22-38.61-41.64-44.31-5.7-3-17.46-12.43-26.19-20.49L325.84,0Z" transform="translate(0)" fill="#fff"/></svg>