<svg id="a7c6be10-ffef-4bdd-a90d-7efd4faaf57c" data-name="Livello 1" xmlns="http://www.w3.org/2000/svg" viewBox="0 0 1000 646.66"><path d="M972.2,11.28c-9,6.35-34.8,22.08-57.55,35.13L873.17,70.16l-62.56,2.68c-34.79,1.67-66.57,4.68-71.26,6.35s-12,7-16.06,11.71C705.23,110.3,669.1,119,557,131.72c-40.48,4.35-87,11.37-103.71,15.39-17.39,4-35.79,6.35-43.49,5.35-20.74-2.34-49.85-14.72-68.92-29.11A105.28,105.28,0,0,0,300.76,105c-21.08-5.35-23.09-6.35-26.43-17.06C270,74.84,261,71.16,240.54,74.51c-23.75,3.68-39.81,12.38-51.19,27.43-16.39,21.41-43.49,41.49-55.87,41.49-2.34,0-14.38-6-26.76-13.39C79.29,113.65,67.24,113,46.5,126.36,9.7,150.12,0,168.85,0,218c0,43.49,2.68,51.85,21.75,63.9,8.36,5,16.72,12,18.4,15.39,3.68,6.69,18.73,11,66.24,18.06,38.13,5.69,92.67,22.75,124.45,38.81,11,5.69,39.14,22.75,61.89,37.8,106.72,70.59,126.79,80,225.82,106.06,101,26.76,106.05,29.44,132.82,68.91,39.47,58.21,82.63,78.29,168.94,79.63,35.13.33,35.8,0,45.84-9.37,5.35-5.35,11-14.39,12.37-20.07,2.35-11.71,21.41-50.86,39.15-80l11.7-19.74-14.72-31.11c-8-17.07-14.72-33.46-14.72-36.47s-7.36-20.41-16.72-38.47c-27.77-54.53-27.77-55.2-5-131.14,21.41-72.27,19.74-68.92,54.53-126.8C979.22,75.85,1004.65,19,999.3,5.26,996.28-3.11,990.6-1.77,972.2,11.28Z" transform="translate(0 0)" fill="#fff"/></svg>