<svg id="e5702232-a297-4dfe-a22e-8febffa7d28a" data-name="Livello 1" xmlns="http://www.w3.org/2000/svg" viewBox="0 0 891.31 1000"><path d="M34.19,1.63C23.33,6.06,11.66,15.72,4.41,27c-9.25,14.09-8,16.1,44.67,78.47C72,132.82,97,163.8,103.81,174.26s22.53,30.18,35.41,43.87c29.38,31.79,40.64,55.93,57.95,126.35,20.92,83.3,31.38,113.88,64.38,188.73,32.6,72.84,36.22,85.31,40.24,138.83C305,713.09,310.24,724.75,328,728l23.74,4.43c6,1.61,16.9,8.05,24.14,14.89,10.47,10.46,12.48,15.29,12.48,32.19,0,26.16,4.42,33.4,28.17,45.47,35.81,18.11,90.94,76.06,112.67,118.71,21.73,43.06,41.05,56.34,79.68,56.34,28.16,0,50.7-8.45,57.54-20.93,2.82-4.82,6-18.91,7.24-31,2.42-20.93,3.63-22.94,24.55-40.24,31.39-25.35,33.8-29.78,36.62-69.62,1.61-20.52,5.23-39,8.45-44.26,3.62-5.23,15.69-12.48,27.36-16.5,25.35-8.85,32.2-21.73,32.2-62,.4-14.89,2-45.07,3.62-66.4,4.42-45.87,11.67-61.57,35-74.44,18.1-10.06,25.75-16.1,25.75-20.93,0-2-7.24-14.08-16.1-27C831,497,830.15,482.1,847.45,454.34c19.32-30.18,43.86-80.48,43.86-89.74,0-10.46-7.64-14.08-40.24-20.12-33.4-6.44-101-38.63-126-60.76s-35-42.25-35-69.21c0-20.13-.8-21.73-20.12-39.84-51.1-47.89-73.24-53.52-113.07-29.38-45.48,27.36-105.43,41.05-149.7,33.8C384.69,175.47,363,166.62,358.13,159c-4-6.44-16.5-4.83-31.79,4.43-16.9,10.06-13.68,11.27-93.76-41.45C32.58-9.23,43.85-2.39,34.19,1.63Z" transform="translate(0)" fill="#fff"/></svg>