<svg id="e1c3b2cb-524f-4ffb-855e-43065d51e594" data-name="Livello 1" xmlns="http://www.w3.org/2000/svg" viewBox="0 0 1000 822.03"><path d="M990.42,338.45c-6,7.71-36.87,24.87-67.74,39.43-64.3,28.3-65.15,29.16-78.88,84.89l-10.28,40.29-69.45.86c-54.87,1.71-77.15,6-111.45,23.15-60,30.86-109.73,85.74-143.18,160.32C459.72,797.13,384.28,846.86,321.69,810c-17.15-10.29-30.87-26.58-36-43.72-4.3-15.44-22.3-41.15-41.17-57.44-39.44-36-75.44-39.44-147.46-12-46.3,18-48.86,18-65.15,3.44-39.44-35.16-42-119.18-9.43-279.5,9.43-44.59,18.86-111.45,22.28-149.18C47.34,233.85,55.91,165.27,63.63,119l9.56-63.16,2.26-14.92L397.08,0S428,35.53,435.24,76.84c3.07,17.57,1.84,36.18-7.89,53.56C397.18,184.26,691.9,253.06,929.8,140l-.26,3.88,36,66.87C1001.56,279.29,1008.42,313.58,990.42,338.45Z" transform="translate(0 0)" fill="#fff"/></svg>