<svg id="b5fd7a6d-0dfa-4e5a-88e9-f2341bf24c13" data-name="Livello 1" xmlns="http://www.w3.org/2000/svg" viewBox="0 0 999.49 1000"><path d="M775.38,10.61c-49.89,15-128,27.65-219.39,35.46C401.52,60.5,364.25,77.93,323.38,157.27l-25.25,49.89-33.66-2.4c-68.52-6-112.4-15.63-152.07-33.66-49.29-22.84-63.11-19.84-92.56,18C4.81,209.56,0,221,0,240.82,0,283.5,39.07,382.67,72.13,424.15l19.23,23.44-9,59.5c-5.41,32.46-11.42,80.55-13.23,107-2.4,26.44-9,73.33-15.62,104.58-22.85,112.4-21,171.31,6.61,196,11.42,10.22,13.22,10.22,45.68-2.4,50.49-19.24,75.73-16.83,103.38,8.41C222.4,932.05,235,950.08,238,960.9c3.61,12,13.23,23.45,25.25,30.66,43.88,25.84,96.77-9,131.63-86,23.45-52.29,58.31-90.76,100.38-112.4,24.05-12,39.67-15,78.14-16.22l48.69-.61,7.21-28.25c9.62-39.07,10.22-39.67,55.3-59.5C706.26,678.4,727.9,666.38,732.1,661c12.63-17.43,7.82-41.47-17.43-89.56l-25.24-46.88,3.6-55.9c2.41-30.66,7.22-62.51,11.42-70.33s24-26.45,43.88-41.47c27-19.24,41.48-35.47,54.1-60.11,10.22-18.63,21-35.46,25.24-36.67,3.61-1.8,19.84,1.21,36.07,6,38.47,12,111.2,8.41,128-6.62,14.42-13.22,12.62-16.23-40.27-78.14-63.12-73.33-83-101.58-101-144.25C831.88-6.82,833.08-6.22,775.38,10.61Z" transform="translate(0 0)" fill="#fff"/></svg>