<svg id="b24f58c2-6b0f-49a7-9c65-bf556d1d1a2c" data-name="Livello 1" xmlns="http://www.w3.org/2000/svg" viewBox="0 0 823.47 1000"><path d="M145.69,11.45c-8.48,8.48-14.84,24-14.84,36.75,0,12-5.65,33.21-12,46.63-11.31,24.74-11.31,25.44,11.31,67.13,30.38,54.41,26.85,69.25-22.62,95.4C58.07,284.21,41.82,316.71,27.69,422.7,22,467.22,12.14,529.4,6.49,560.49c-10.6,59.36-9.89,66.42,14.84,108.82,5.65,9.89,10.6,24,10.6,31.8,0,24.73,19.78,45.22,48.05,50.17,72.07,12,75.6,14.13,121.53,77,31.1,43.81,51.59,64.3,72.79,74.9,16.25,7.77,47.34,33.21,69.24,56.53,49.47,51.58,62.89,53,84.8,7.77,28.26-55.11,137.79-141.32,250.84-195.73C804.26,711,853,657.3,805.67,631.15c-7.77-4.24-27.56-19.78-44.52-33.91-18.37-15.55-42.39-28.27-57.23-31.09-41-6.36-63.6-17.67-78.44-38.16-7.77-11.31-26.85-63.6-42.39-118-34.63-120.83-66.43-208.45-89-248-19.78-33.91-67.83-72.07-90.44-72.07-8.48,0-21.91-5-29.68-10.6C354.14,65.86,211.41,7.92,182.44,1.56,164.77-2,157,.15,145.69,11.45Z" transform="translate(0 0)" fill="#fff"/></svg>