<svg id="a43022bc-d64d-4214-b5a9-761518d062ed" data-name="Livello 1" xmlns="http://www.w3.org/2000/svg" viewBox="0 0 1000 560.3"><path d="M739.55,1.31c-15,2.15-82.53,18.22-150,35.37s-192.93,43.95-278.67,59c-134,23.58-211.15,40.73-291.54,66.45C8.57,165.3,0,170.66,0,175c0,3.21,22.51,33.22,49.3,65.38,61.1,75,109.33,167.2,122.19,239,18.22,95.39,35.37,98.61,268,50.37C629.15,490.06,766.35,468.62,899.25,459L1000,451.47l-7.5-116.82c-8.58-135-27.87-209-67.53-255.1C881,27,799.57-7.26,739.55,1.31Z" transform="translate(0 0)" fill="#fff"/></svg>