<svg id="b58604bb-a4a0-472e-a2bb-86f3aae212b5" data-name="Livello 1" xmlns="http://www.w3.org/2000/svg" viewBox="0 0 934.51 1000"><path d="M701.71,2c-10,2.26-30.39,7.25-45.35,11.33-14.51,4.08-39,7.26-54.42,7.26C587,21.06,567,23.78,558,27c-22.22,7.71-82.08,54-90.25,69.38-3.62,7.25-6.34,25.39-6.34,46.25,0,32.65.9,36.28,19.49,65.76,21.77,35.82,22.68,43.53,10,72.55-9.52,22.22-25.85,35.37-55.78,44.44-21.31,6.35-34,21.77-37.63,44.9-5,31.74-9.53,34-44.45,24.94l-30.38-7.71-22.22,12.24c-12.24,6.81-33.1,21.77-46.71,34-21.31,18.6-27.66,28.57-44,67.57-11.34,26.76-24,49-30.84,54.42-15,12.24-50.34,11.79-101.58-.91l-39.9-9.52L26.94,554.8c-27.67,25.85-35.38,101.13-16.78,161,12.24,39,26.75,54,106.11,109.74,65.75,46.25,78.45,55.32,122.89,90.69,41.27,32.65,115.19,70.29,138.31,70.29,9.53,0,31.29-5.44,48.07-12.24,27.66-10.43,38.09-11.79,88-12.25,66.67-.45,106.12,6.81,132.87,24.94,31.29,21.32,57.59,15.88,57.59-11.79,0-16.32-5.89-24.94-51.24-73.46-19-20.86-20.86-24.94-16.78-33.56,3.18-5,7.26-29,9.53-52.6,7.25-78,27.2-105.66,127.88-175.49,64.84-45.35,81.62-62.13,89.78-89.34,3.18-10.43,8.62-19.5,11.79-20.86,11.34-4.53,26.31,3.18,34,16.78,13.6,24,30.83,11.79,24-17.23-5.9-27.21-49-64.4-74.82-64.4-5,0-21.32,5-36.28,11.34s-31.75,11.34-37.19,11.34c-16.32,0-45.8-19.05-55.77-35.83-5-8.16-17.69-24.94-28.12-37.18-10.88-12.25-20.86-27.66-22.22-33.56-4.08-15.87,1.36-41.27,14.51-66.66l11.34-22.22-24.49-25.85c-54.42-57.59-50.79-72.1,44.89-175,29.48-31.74,59.86-64.85,66.67-73.46L804.65,2.47H788.77c-8.61,0-27.66-.91-42.17-1.81C732.09-.71,711.68.2,701.71,2Z" transform="translate(0 0)" fill="#fff"/></svg>